<svg width="1200" height="630" viewBox="0 0 1200 630" fill="none" xmlns="http://www.w3.org/2000/svg">
  <defs>
    <linearGradient id="bg" x1="0" y1="0" x2="1200" y2="630" gradientUnits="userSpaceOnUse">
      <stop stop-color="#0C111B"/>
      <stop offset="1" stop-color="#101724"/>
    </linearGradient>
    <radialGradient id="halo" cx="0" cy="0" r="1" gradientTransform="translate(930 300) rotate(90) scale(430)">
      <stop stop-color="#FF705A" stop-opacity=".18"/>
      <stop offset="1" stop-color="#FF705A" stop-opacity="0"/>
    </radialGradient>
    <filter id="shadow" x="-50%" y="-50%" width="200%" height="200%">
      <feDropShadow dx="0" dy="24" stdDeviation="24" flood-color="#000" flood-opacity=".55"/>
    </filter>
    <clipPath id="screen"><rect x="850" y="54" width="300" height="522" rx="16"/></clipPath>
  </defs>
  <rect width="1200" height="630" fill="url(#bg)"/>
  <rect width="1200" height="630" fill="url(#halo)"/>
  <path d="M0 72H1200M0 558H1200" stroke="#29364A"/>
  <rect x="54" y="52" width="40" height="40" rx="11" fill="none" stroke="#FF705A" stroke-width="5"/>
  <circle cx="74" cy="72" r="4" fill="#FF705A"/>
  <text x="112" y="83" fill="#F7F4EB" font-family="Segoe UI, sans-serif" font-size="32" font-weight="700">Captail</text>
  <text x="72" y="225" fill="#F7F4EB" font-family="Segoe UI, sans-serif" font-size="72" font-weight="700" letter-spacing="-4">Instant Replay that</text>
  <text x="72" y="305" fill="#FF705A" font-family="Segoe UI, sans-serif" font-size="72" font-weight="650" letter-spacing="-4">tries to stay on.</text>
  <text x="76" y="366" fill="#AAB5C6" font-family="Segoe UI, sans-serif" font-size="24">Free · Open source · Local · Windows</text>
  <text x="76" y="508" fill="#79AEFF" font-family="Cascadia Mono, Consolas, monospace" font-size="15" letter-spacing="2">ROLLING BUFFER / RECOVERY WATCHDOG</text>
  <path d="M75 536H744" stroke="#29364A"/>
  <path d="M75 536H346" stroke="#FF705A" stroke-width="3"/>
  <g filter="url(#shadow)" clip-path="url(#screen)">
    <rect x="850" y="54" width="300" height="522" rx="16" fill="#141C29"/>
    <image href="captail-main.png" x="850" y="54" width="300" height="490" preserveAspectRatio="xMidYMin slice"/>
  </g>
  <rect x="850" y="54" width="300" height="522" rx="16" stroke="#35445A"/>
</svg>
